<svg width="300" height="207" viewBox="0 0 300 207" fill="none" xmlns="http://www.w3.org/2000/svg">
<path d="M0 20C0 8.95431 8.95431 0 20 0H280C291.046 0 300 8.95431 300 20V156C300 167.046 291.046 176 280 176H20C8.9543 176 0 167.046 0 156V20Z" fill="currentColor"/>
<path d="M208.057 112.043C211.339 107.601 217.601 106.661 222.043 109.943L279.196 152.174C283.638 155.456 284.578 161.718 281.296 166.16L254.354 202.621C251.072 207.062 244.811 208.003 240.369 204.72L183.215 162.489C178.774 159.207 177.833 152.946 181.116 148.504L208.057 112.043Z" fill="currentColor"/>
<path d="M194.436 109.073V112.927H190.582V109.073H194.436ZM194.436 105.22V109.073H190.582V105.22H194.436ZM194.436 101.366V105.22H190.582V101.366H194.436ZM194.436 97.5122V101.366H190.582V97.5122H194.436ZM194.436 93.6585V97.5122H190.582V93.6585H194.436ZM194.436 89.8049V93.6585H190.582V89.8049H194.436ZM194.436 85.9512V89.8049H190.582V85.9512H194.436ZM194.436 82.0976V85.9512H190.582V82.0976H194.436ZM194.436 78.2439V82.0976H190.582V78.2439H194.436ZM194.436 74.3902V78.2439H190.582V74.3902H194.436ZM194.436 70.5366V74.3902H190.582V70.5366H194.436ZM198.289 70.5366V74.3902H194.436V70.5366H198.289ZM198.289 74.3902V78.2439H194.436V74.3902H198.289ZM198.289 78.2439V82.0976H194.436V78.2439H198.289ZM198.289 82.0976V85.9512H194.436V82.0976H198.289ZM198.289 85.9512V89.8049H194.436V85.9512H198.289ZM198.289 89.8049V93.6585H194.436V89.8049H198.289ZM198.289 93.6585V97.5122H194.436V93.6585H198.289ZM202.143 97.5122V101.366H198.289V97.5122H202.143ZM202.143 101.366V105.22H198.289V101.366H202.143ZM202.143 105.22V109.073H198.289V105.22H202.143ZM202.143 109.073V112.927H198.289V109.073H202.143ZM202.143 112.927V116.78H198.289V112.927H202.143ZM202.143 116.78V120.634H198.289V116.78H202.143ZM202.143 120.634V124.488H198.289V120.634H202.143ZM209.85 124.488V128.341H205.997V124.488H209.85ZM209.85 120.634V124.488H205.997V120.634H209.85ZM209.85 116.78V120.634H205.997V116.78H209.85ZM209.85 112.927V116.78H205.997V112.927H209.85ZM209.85 109.073V112.927H205.997V109.073H209.85ZM209.85 105.22V109.073H205.997V105.22H209.85ZM209.85 101.366V105.22H205.997V101.366H209.85ZM209.85 97.5122V101.366H205.997V97.5122H209.85ZM205.997 97.5122V101.366H202.143V97.5122H205.997ZM205.997 93.6585V97.5122H202.143V93.6585H205.997ZM205.997 101.366V105.22H202.143V101.366H205.997ZM205.997 105.22V109.073H202.143V105.22H205.997ZM205.997 109.073V112.927H202.143V109.073H205.997ZM205.997 112.927V116.78H202.143V112.927H205.997ZM205.997 116.78V120.634H202.143V116.78H205.997ZM205.997 120.634V124.488H202.143V120.634H205.997ZM198.289 116.78V120.634H194.436V116.78H198.289ZM198.289 112.927V116.78H194.436V112.927H198.289ZM198.289 109.073V112.927H194.436V109.073H198.289ZM198.289 105.22V109.073H194.436V105.22H198.289ZM198.289 101.366V105.22H194.436V101.366H198.289ZM198.289 97.5122V101.366H194.436V97.5122H198.289ZM194.436 66.6829V70.5366H190.582V66.6829H194.436ZM205.997 66.6829V70.5366H202.143V66.6829H205.997ZM205.997 70.5366V74.3902H202.143V70.5366H205.997ZM205.997 74.3902V78.2439H202.143V74.3902H205.997ZM205.997 78.2439V82.0976H202.143V78.2439H205.997ZM205.997 82.0976V85.9512H202.143V82.0976H205.997ZM209.85 85.9512V89.8049H205.997V85.9512H209.85ZM209.85 89.8049V93.6585H205.997V89.8049H209.85ZM209.85 93.6585V97.5122H205.997V93.6585H209.85ZM209.85 82.0976V85.9512H205.997V82.0976H209.85ZM209.85 78.2439V82.0976H205.997V78.2439H209.85ZM209.85 74.3902V78.2439H205.997V74.3902H209.85ZM209.85 70.5366V74.3902H205.997V70.5366H209.85ZM209.85 66.6829V70.5366H205.997V66.6829H209.85ZM198.289 66.6829V70.5366H194.436V66.6829H198.289ZM202.143 66.6829V70.5366H198.289V66.6829H202.143ZM202.143 70.5366V74.3902H198.289V70.5366H202.143ZM202.143 74.3902V78.2439H198.289V74.3902H202.143ZM202.143 78.2439V82.0976H198.289V78.2439H202.143ZM202.143 82.0976V85.9512H198.289V82.0976H202.143ZM202.143 85.9512V89.8049H198.289V85.9512H202.143ZM202.143 89.8049V93.6585H198.289V89.8049H202.143ZM202.143 93.6585V97.5122H198.289V93.6585H202.143ZM205.997 89.8049V93.6585H202.143V89.8049H205.997ZM205.997 85.9512V89.8049H202.143V85.9512H205.997ZM240.68 116.78V120.634H236.826V116.78H240.68ZM240.68 112.927V116.78H236.826V112.927H240.68ZM240.68 109.073V112.927H236.826V109.073H240.68ZM240.68 105.22V109.073H236.826V105.22H240.68ZM240.68 101.366V105.22H236.826V101.366H240.68ZM240.68 97.5122V101.366H236.826V97.5122H240.68ZM240.68 93.6585V97.5122H236.826V93.6585H240.68ZM240.68 89.8049V93.6585H236.826V89.8049H240.68ZM240.68 85.9512V89.8049H236.826V85.9512H240.68ZM240.68 82.0976V85.9512H236.826V82.0976H240.68ZM240.68 78.2439V82.0976H236.826V78.2439H240.68ZM240.68 74.3902V78.2439H236.826V74.3902H240.68ZM240.68 70.5366V74.3902H236.826V70.5366H240.68ZM244.533 70.5366V74.3902H240.68V70.5366H244.533ZM244.533 74.3902V78.2439H240.68V74.3902H244.533ZM244.533 78.2439V82.0976H240.68V78.2439H244.533ZM244.533 82.0976V85.9512H240.68V82.0976H244.533ZM244.533 85.9512V89.8049H240.68V85.9512H244.533ZM244.533 89.8049V93.6585H240.68V89.8049H244.533ZM244.533 93.6585V97.5122H240.68V93.6585H244.533ZM248.387 97.5122V101.366H244.533V97.5122H248.387ZM248.387 101.366V105.22H244.533V101.366H248.387ZM248.387 105.22V109.073H244.533V105.22H248.387ZM248.387 109.073V112.927H244.533V109.073H248.387ZM248.387 112.927V116.78H244.533V112.927H248.387ZM248.387 116.78V120.634H244.533V116.78H248.387ZM256.094 105.22V109.073H252.241V105.22H256.094ZM256.094 101.366V105.22H252.241V101.366H256.094ZM256.094 97.5122V101.366H252.241V97.5122H256.094ZM252.241 97.5122V101.366H248.387V97.5122H252.241ZM252.241 93.6585V97.5122H248.387V93.6585H252.241ZM252.241 101.366V105.22H248.387V101.366H252.241ZM252.241 105.22V109.073H248.387V105.22H252.241ZM252.241 109.073V112.927H248.387V109.073H252.241ZM252.241 112.927V116.78H248.387V112.927H252.241ZM244.533 116.78V120.634H240.68V116.78H244.533ZM244.533 112.927V116.78H240.68V112.927H244.533ZM244.533 109.073V112.927H240.68V109.073H244.533ZM244.533 105.22V109.073H240.68V105.22H244.533ZM244.533 101.366V105.22H240.68V101.366H244.533ZM244.533 97.5122V101.366H240.68V97.5122H244.533ZM240.68 66.6829V70.5366H236.826V66.6829H240.68ZM252.241 66.6829V70.5366H248.387V66.6829H252.241ZM252.241 70.5366V74.3902H248.387V70.5366H252.241ZM252.241 74.3902V78.2439H248.387V74.3902H252.241ZM252.241 78.2439V82.0976H248.387V78.2439H252.241ZM252.241 82.0976V85.9512H248.387V82.0976H252.241ZM256.094 85.9512V89.8049H252.241V85.9512H256.094ZM256.094 89.8049V93.6585H252.241V89.8049H256.094ZM256.094 93.6585V97.5122H252.241V93.6585H256.094ZM256.094 82.0976V85.9512H252.241V82.0976H256.094ZM256.094 78.2439V82.0976H252.241V78.2439H256.094ZM256.094 74.3902V78.2439H252.241V74.3902H256.094ZM256.094 70.5366V74.3902H252.241V70.5366H256.094ZM256.094 66.6829V70.5366H252.241V66.6829H256.094ZM244.533 66.6829V70.5366H240.68V66.6829H244.533ZM248.387 66.6829V70.5366H244.533V66.6829H248.387ZM248.387 70.5366V74.3902H244.533V70.5366H248.387ZM248.387 74.3902V78.2439H244.533V74.3902H248.387ZM248.387 78.2439V82.0976H244.533V78.2439H248.387ZM248.387 82.0976V85.9512H244.533V82.0976H248.387ZM248.387 85.9512V89.8049H244.533V85.9512H248.387ZM248.387 89.8049V93.6585H244.533V89.8049H248.387ZM248.387 93.6585V97.5122H244.533V93.6585H248.387ZM252.241 89.8049V93.6585H248.387V89.8049H252.241ZM252.241 85.9512V89.8049H248.387V85.9512H252.241ZM213.704 124.488V128.341H209.85V124.488H213.704ZM217.558 124.488V128.341H213.704V124.488H217.558ZM221.411 124.488V128.341H217.558V124.488H221.411ZM229.119 124.488V128.341H225.265V124.488H229.119ZM232.972 124.488V128.341H229.119V124.488H232.972ZM236.826 124.488V128.341H232.972V124.488H236.826ZM236.826 120.634V124.488H232.972V120.634H236.826ZM232.972 120.634V124.488H229.119V120.634H232.972ZM229.119 120.634V124.488H225.265V120.634H229.119ZM221.411 120.634V124.488H217.558V120.634H221.411ZM217.558 120.634V124.488H213.704V120.634H217.558ZM213.704 120.634V124.488H209.85V120.634H213.704ZM213.704 116.78V120.634H209.85V116.78H213.704ZM217.558 116.78V120.634H213.704V116.78H217.558ZM221.411 116.78V120.634H217.558V116.78H221.411ZM229.119 116.78V120.634H225.265V116.78H229.119ZM232.972 116.78V120.634H229.119V116.78H232.972ZM236.826 116.78V120.634H232.972V116.78H236.826ZM236.826 112.927V116.78H232.972V112.927H236.826ZM232.972 112.927V116.78H229.119V112.927H232.972ZM229.119 112.927V116.78H225.265V112.927H229.119ZM221.411 112.927V116.78H217.558V112.927H221.411ZM217.558 112.927V116.78H213.704V112.927H217.558ZM213.704 112.927V116.78H209.85V112.927H213.704ZM213.704 109.073V112.927H209.85V109.073H213.704ZM236.826 109.073V112.927H232.972V109.073H236.826ZM252.241 51.2683V47.4146H256.094V51.2683H252.241ZM252.241 55.122V51.2683H256.094V55.122H252.241ZM252.241 58.9756V55.122H256.094V58.9756H252.241ZM244.533 58.9756V55.122H248.387V58.9756H244.533ZM244.533 55.122V51.2683H248.387V55.122H244.533ZM244.533 51.2683V47.4146H248.387V51.2683H244.533ZM244.533 47.4146V43.561H248.387V47.4146H244.533ZM244.533 43.561V39.7073H248.387V43.561H244.533ZM244.533 39.7073V35.8537H248.387V39.7073H244.533ZM236.826 35.8537V32H240.68V35.8537H236.826ZM236.826 39.7073V35.8537H240.68V39.7073H236.826ZM236.826 43.561V39.7073H240.68V43.561H236.826ZM236.826 47.4146V43.561H240.68V47.4146H236.826ZM236.826 51.2683V47.4146H240.68V51.2683H236.826ZM236.826 55.122V51.2683H240.68V55.122H236.826ZM236.826 58.9756V55.122H240.68V58.9756H236.826ZM240.68 58.9756V55.122H244.533V58.9756H240.68ZM240.68 55.122V51.2683H244.533V55.122H240.68ZM240.68 51.2683V47.4146H244.533V51.2683H240.68ZM240.68 47.4146V43.561H244.533V47.4146H240.68ZM240.68 43.561V39.7073H244.533V43.561H240.68ZM240.68 39.7073V35.8537H244.533V39.7073H240.68ZM248.387 43.561V39.7073H252.241V43.561H248.387ZM248.387 47.4146V43.561H252.241V47.4146H248.387ZM248.387 51.2683V47.4146H252.241V51.2683H248.387ZM248.387 55.122V51.2683H252.241V55.122H248.387ZM248.387 58.9756V55.122H252.241V58.9756H248.387ZM205.997 35.8537V32H209.85V35.8537H205.997ZM205.997 39.7073V35.8537H209.85V39.7073H205.997ZM205.997 43.561V39.7073H209.85V43.561H205.997ZM205.997 47.4146V43.561H209.85V47.4146H205.997ZM205.997 51.2683V47.4146H209.85V51.2683H205.997ZM205.997 55.122V51.2683H209.85V55.122H205.997ZM205.997 58.9756V55.122H209.85V58.9756H205.997ZM198.289 58.9756V55.122H202.143V58.9756H198.289ZM198.289 55.122V51.2683H202.143V55.122H198.289ZM198.289 51.2683V47.4146H202.143V51.2683H198.289ZM198.289 47.4146V43.561H202.143V47.4146H198.289ZM198.289 43.561V39.7073H202.143V43.561H198.289ZM198.289 39.7073V35.8537H202.143V39.7073H198.289ZM190.582 51.2683V47.4146H194.436V51.2683H190.582ZM190.582 55.122V51.2683H194.436V55.122H190.582ZM190.582 58.9756V55.122H194.436V58.9756H190.582ZM194.436 58.9756V55.122H198.289V58.9756H194.436ZM194.436 55.122V51.2683H198.289V55.122H194.436ZM194.436 51.2683V47.4146H198.289V51.2683H194.436ZM194.436 47.4146V43.561H198.289V47.4146H194.436ZM194.436 43.561V39.7073H198.289V43.561H194.436ZM202.143 39.7073V35.8537H205.997V39.7073H202.143ZM202.143 43.561V39.7073H205.997V43.561H202.143ZM202.143 47.4146V43.561H205.997V47.4146H202.143ZM202.143 51.2683V47.4146H205.997V51.2683H202.143ZM202.143 55.122V51.2683H205.997V55.122H202.143ZM202.143 58.9756V55.122H205.997V58.9756H202.143ZM232.972 35.8537V32H236.826V35.8537H232.972ZM229.119 35.8537V32H232.972V35.8537H229.119ZM225.265 35.8537V32H229.119V35.8537H225.265ZM217.558 35.8537V32H221.411V35.8537H217.558ZM213.704 35.8537V32H217.558V35.8537H213.704ZM209.85 35.8537V32H213.704V35.8537H209.85ZM209.85 39.7073V35.8537H213.704V39.7073H209.85ZM213.704 39.7073V35.8537H217.558V39.7073H213.704ZM217.558 39.7073V35.8537H221.411V39.7073H217.558ZM225.265 39.7073V35.8537H229.119V39.7073H225.265ZM229.119 39.7073V35.8537H232.972V39.7073H229.119ZM232.972 39.7073V35.8537H236.826V39.7073H232.972ZM232.972 43.561V39.7073H236.826V43.561H232.972ZM229.119 43.561V39.7073H232.972V43.561H229.119ZM225.265 43.561V39.7073H229.119V43.561H225.265ZM217.558 43.561V39.7073H221.411V43.561H217.558ZM213.704 43.561V39.7073H217.558V43.561H213.704ZM209.85 43.561V39.7073H213.704V43.561H209.85ZM209.85 47.4146V43.561H213.704V47.4146H209.85ZM213.704 47.4146V43.561H217.558V47.4146H213.704ZM217.558 47.4146V43.561H221.411V47.4146H217.558ZM225.265 47.4146V43.561H229.119V47.4146H225.265ZM229.119 47.4146V43.561H232.972V47.4146H229.119ZM232.972 47.4146V43.561H236.826V47.4146H232.972ZM232.972 51.2683V47.4146H236.826V51.2683H232.972ZM209.85 51.2683V47.4146H213.704V51.2683H209.85ZM194.436 62.8293V66.6829H190.582V62.8293H194.436ZM198.289 62.8293V66.6829H194.436V62.8293H198.289ZM194.436 58.9756V62.8293H190.582V58.9756H194.436ZM205.997 58.9756V62.8293H202.143V58.9756H205.997ZM205.997 62.8293V66.6829H202.143V62.8293H205.997ZM209.85 62.8293V66.6829H205.997V62.8293H209.85ZM209.85 58.9756V62.8293H205.997V58.9756H209.85ZM198.289 58.9756V62.8293H194.436V58.9756H198.289ZM202.143 58.9756V62.8293H198.289V58.9756H202.143ZM202.143 62.8293V66.6829H198.289V62.8293H202.143ZM240.68 62.8293V66.6829H236.826V62.8293H240.68ZM244.533 62.8293V66.6829H240.68V62.8293H244.533ZM240.68 58.9756V62.8293H236.826V58.9756H240.68ZM252.241 58.9756V62.8293H248.387V58.9756H252.241ZM252.241 62.8293V66.6829H248.387V62.8293H252.241ZM256.094 62.8293V66.6829H252.241V62.8293H256.094ZM256.094 58.9756V62.8293H252.241V58.9756H256.094ZM244.533 58.9756V62.8293H240.68V58.9756H244.533ZM248.387 58.9756V62.8293H244.533V58.9756H248.387ZM248.387 62.8293V66.6829H244.533V62.8293H248.387ZM217.558 109.073V112.927H213.704V109.073H217.558ZM221.411 109.073V112.927H217.558V109.073H221.411ZM229.119 109.073V112.927H225.265V109.073H229.119ZM232.972 109.073V112.927H229.119V109.073H232.972ZM236.826 105.22V109.073H232.972V105.22H236.826ZM213.704 105.22V109.073H209.85V105.22H213.704ZM217.558 47.4146V51.2683H213.704V47.4146H217.558ZM221.411 47.4146V51.2683H217.558V47.4146H221.411ZM229.119 47.4146V51.2683H225.265V47.4146H229.119ZM232.972 47.4146V51.2683H229.119V47.4146H232.972ZM236.826 51.2683V55.122H232.972V51.2683H236.826ZM213.704 51.2683V55.122H209.85V51.2683H213.704ZM240.68 120.634V124.488H236.826V120.634H240.68ZM240.68 124.488V128.341H236.826V124.488H240.68ZM244.533 124.488V128.341H240.68V124.488H244.533ZM248.387 124.488V128.341H244.533V124.488H248.387ZM252.241 124.488V128.341H248.387V124.488H252.241ZM256.094 124.488V128.341H252.241V124.488H256.094ZM256.094 128.341V132.195H252.241V128.341H256.094ZM256.094 132.195V136.049H252.241V132.195H256.094ZM256.094 136.049V139.902H252.241V136.049H256.094ZM256.094 139.902V143.756H252.241V139.902H256.094ZM252.241 139.902V143.756H248.387V139.902H252.241ZM248.387 139.902V143.756H244.533V139.902H248.387ZM244.533 139.902V143.756H240.68V139.902H244.533ZM240.68 139.902V143.756H236.826V139.902H240.68ZM236.826 139.902V143.756H232.972V139.902H236.826ZM229.119 128.341V132.195H225.265V128.341H229.119ZM229.119 132.195V136.049H225.265V132.195H229.119ZM232.972 136.049V139.902H229.119V136.049H232.972ZM236.826 136.049V139.902H232.972V136.049H236.826ZM236.826 132.195V136.049H232.972V132.195H236.826ZM232.972 132.195V136.049H229.119V132.195H232.972ZM232.972 128.341V132.195H229.119V128.341H232.972ZM236.826 128.341V132.195H232.972V128.341H236.826ZM240.68 128.341V132.195H236.826V128.341H240.68ZM244.533 128.341V132.195H240.68V128.341H244.533ZM248.387 128.341V132.195H244.533V128.341H248.387ZM252.241 128.341V132.195H248.387V128.341H252.241ZM252.241 132.195V136.049H248.387V132.195H252.241ZM252.241 136.049V139.902H248.387V136.049H252.241ZM248.387 136.049V139.902H244.533V136.049H248.387ZM244.533 136.049V139.902H240.68V136.049H244.533ZM240.68 136.049V139.902H236.826V136.049H240.68ZM240.68 132.195V136.049H236.826V132.195H240.68ZM244.533 132.195V136.049H240.68V132.195H244.533ZM248.387 132.195V136.049H244.533V132.195H248.387ZM225.265 32V35.8537H221.411V32H225.265ZM225.265 35.8537V39.7073H221.411V35.8537H225.265ZM225.265 39.7073V43.561H221.411V39.7073H225.265ZM225.265 43.561V47.4146H221.411V43.561H225.265ZM225.265 47.4146V51.2683H221.411V47.4146H225.265ZM225.265 109.073V112.927H221.411V109.073H225.265ZM225.265 112.927V116.78H221.411V112.927H225.265ZM225.265 116.78V120.634H221.411V116.78H225.265ZM225.265 120.634V124.488H221.411V120.634H225.265ZM225.265 124.488V128.341H221.411V124.488H225.265ZM225.265 128.341V132.195H221.411V128.341H225.265ZM225.265 132.195V136.049H221.411V132.195H225.265ZM229.119 136.049V139.902H225.265V136.049H229.119ZM232.972 139.902V143.756H229.119V139.902H232.972Z" fill="white"/>
<path d="M117.287 124.488V128.341H113.434V124.488H117.287ZM117.287 120.634V124.488H113.434V120.634H117.287ZM117.287 116.78V120.634H113.434V116.78H117.287ZM117.287 112.927V116.78H113.434V112.927H117.287ZM117.287 109.073V112.927H113.434V109.073H117.287ZM117.287 105.22V109.073H113.434V105.22H117.287ZM117.287 101.366V105.22H113.434V101.366H117.287ZM117.287 97.5122V101.366H113.434V97.5122H117.287ZM117.287 93.6585V97.5122H113.434V93.6585H117.287ZM117.287 89.8049V93.6585H113.434V89.8049H117.287ZM117.287 85.9512V89.8049H113.434V85.9512H117.287ZM117.287 82.0976V85.9512H113.434V82.0976H117.287ZM117.287 78.2439V82.0976H113.434V78.2439H117.287ZM117.287 74.3902V78.2439H113.434V74.3902H117.287ZM117.287 70.5366V74.3902H113.434V70.5366H117.287ZM121.141 70.5366V74.3902H117.287V70.5366H121.141ZM121.141 74.3902V78.2439H117.287V74.3902H121.141ZM121.141 78.2439V82.0976H117.287V78.2439H121.141ZM121.141 82.0976V85.9512H117.287V82.0976H121.141ZM121.141 85.9512V89.8049H117.287V85.9512H121.141ZM121.141 89.8049V93.6585H117.287V89.8049H121.141ZM121.141 93.6585V97.5122H117.287V93.6585H121.141ZM124.995 97.5122V101.366H121.141V97.5122H124.995ZM124.995 101.366V105.22H121.141V101.366H124.995ZM124.995 105.22V109.073H121.141V105.22H124.995ZM124.995 109.073V112.927H121.141V109.073H124.995ZM124.995 112.927V116.78H121.141V112.927H124.995ZM124.995 116.78V120.634H121.141V116.78H124.995ZM124.995 120.634V124.488H121.141V120.634H124.995ZM124.995 124.488V128.341H121.141V124.488H124.995ZM128.848 124.488V128.341H124.995V124.488H128.848ZM132.702 124.488V128.341H128.848V124.488H132.702ZM132.702 120.634V124.488H128.848V120.634H132.702ZM132.702 116.78V120.634H128.848V116.78H132.702ZM132.702 112.927V116.78H128.848V112.927H132.702ZM132.702 109.073V112.927H128.848V109.073H132.702ZM132.702 105.22V109.073H128.848V105.22H132.702ZM132.702 101.366V105.22H128.848V101.366H132.702ZM132.702 97.5122V101.366H128.848V97.5122H132.702ZM128.848 97.5122V101.366H124.995V97.5122H128.848ZM128.848 93.6585V97.5122H124.995V93.6585H128.848ZM128.848 101.366V105.22H124.995V101.366H128.848ZM128.848 105.22V109.073H124.995V105.22H128.848ZM128.848 109.073V112.927H124.995V109.073H128.848ZM128.848 112.927V116.78H124.995V112.927H128.848ZM128.848 116.78V120.634H124.995V116.78H128.848ZM128.848 120.634V124.488H124.995V120.634H128.848ZM121.141 124.488V128.341H117.287V124.488H121.141ZM121.141 120.634V124.488H117.287V120.634H121.141ZM121.141 116.78V120.634H117.287V116.78H121.141ZM121.141 112.927V116.78H117.287V112.927H121.141ZM121.141 109.073V112.927H117.287V109.073H121.141ZM121.141 105.22V109.073H117.287V105.22H121.141ZM121.141 101.366V105.22H117.287V101.366H121.141ZM121.141 97.5122V101.366H117.287V97.5122H121.141ZM117.287 58.9756V62.8293H113.434V58.9756H117.287ZM117.287 62.8293V66.6829H113.434V62.8293H117.287ZM117.287 66.6829V70.5366H113.434V66.6829H117.287ZM128.848 51.2683V55.122H124.995V51.2683H128.848ZM128.848 58.9756V62.8293H124.995V58.9756H128.848ZM128.848 62.8293V66.6829H124.995V62.8293H128.848ZM128.848 66.6829V70.5366H124.995V66.6829H128.848ZM128.848 70.5366V74.3902H124.995V70.5366H128.848ZM128.848 74.3902V78.2439H124.995V74.3902H128.848ZM128.848 78.2439V82.0976H124.995V78.2439H128.848ZM128.848 82.0976V85.9512H124.995V82.0976H128.848ZM132.702 85.9512V89.8049H128.848V85.9512H132.702ZM132.702 89.8049V93.6585H128.848V89.8049H132.702ZM132.702 93.6585V97.5122H128.848V93.6585H132.702ZM132.702 82.0976V85.9512H128.848V82.0976H132.702ZM132.702 78.2439V82.0976H128.848V78.2439H132.702ZM132.702 74.3902V78.2439H128.848V74.3902H132.702ZM132.702 70.5366V74.3902H128.848V70.5366H132.702ZM132.702 66.6829V70.5366H128.848V66.6829H132.702ZM132.702 62.8293V66.6829H128.848V62.8293H132.702ZM132.702 58.9756V62.8293H128.848V58.9756H132.702ZM132.702 55.122V58.9756H128.848V55.122H132.702ZM132.702 51.2683V55.122H128.848V51.2683H132.702ZM132.702 47.4146V51.2683H128.848V47.4146H132.702ZM128.848 55.122V58.9756H124.995V55.122H128.848ZM132.702 43.561V47.4146H128.848V43.561H132.702ZM132.702 39.7073V43.561H128.848V39.7073H132.702ZM124.995 51.2683V55.122H121.141V51.2683H124.995ZM124.995 55.122V58.9756H121.141V55.122H124.995ZM124.995 58.9756V62.8293H121.141V58.9756H124.995ZM121.141 62.8293V66.6829H117.287V62.8293H121.141ZM121.141 66.6829V70.5366H117.287V66.6829H121.141ZM121.141 58.9756V62.8293H117.287V58.9756H121.141ZM121.141 55.122V58.9756H117.287V55.122H121.141ZM124.995 62.8293V66.6829H121.141V62.8293H124.995ZM124.995 66.6829V70.5366H121.141V66.6829H124.995ZM124.995 70.5366V74.3902H121.141V70.5366H124.995ZM124.995 74.3902V78.2439H121.141V74.3902H124.995ZM124.995 78.2439V82.0976H121.141V78.2439H124.995ZM124.995 82.0976V85.9512H121.141V82.0976H124.995ZM124.995 85.9512V89.8049H121.141V85.9512H124.995ZM124.995 89.8049V93.6585H121.141V89.8049H124.995ZM124.995 93.6585V97.5122H121.141V93.6585H124.995ZM128.848 89.8049V93.6585H124.995V89.8049H128.848ZM128.848 85.9512V89.8049H124.995V85.9512H128.848ZM159.677 124.488V128.341H155.824V124.488H159.677ZM159.677 120.634V124.488H155.824V120.634H159.677ZM159.677 116.78V120.634H155.824V116.78H159.677ZM159.677 112.927V116.78H155.824V112.927H159.677ZM159.677 109.073V112.927H155.824V109.073H159.677ZM159.677 105.22V109.073H155.824V105.22H159.677ZM159.677 101.366V105.22H155.824V101.366H159.677ZM159.677 97.5122V101.366H155.824V97.5122H159.677ZM159.677 93.6585V97.5122H155.824V93.6585H159.677ZM159.677 89.8049V93.6585H155.824V89.8049H159.677ZM159.677 85.9512V89.8049H155.824V85.9512H159.677ZM159.677 82.0976V85.9512H155.824V82.0976H159.677ZM159.677 78.2439V82.0976H155.824V78.2439H159.677ZM159.677 74.3902V78.2439H155.824V74.3902H159.677ZM159.677 70.5366V74.3902H155.824V70.5366H159.677ZM163.531 70.5366V74.3902H159.677V70.5366H163.531ZM163.531 74.3902V78.2439H159.677V74.3902H163.531ZM163.531 78.2439V82.0976H159.677V78.2439H163.531ZM163.531 82.0976V85.9512H159.677V82.0976H163.531ZM163.531 85.9512V89.8049H159.677V85.9512H163.531ZM163.531 89.8049V93.6585H159.677V89.8049H163.531ZM163.531 93.6585V97.5122H159.677V93.6585H163.531ZM167.385 97.5122V101.366H163.531V97.5122H167.385ZM167.385 101.366V105.22H163.531V101.366H167.385ZM167.385 105.22V109.073H163.531V105.22H167.385ZM167.385 109.073V112.927H163.531V109.073H167.385ZM167.385 112.927V116.78H163.531V112.927H167.385ZM167.385 116.78V120.634H163.531V116.78H167.385ZM167.385 120.634V124.488H163.531V120.634H167.385ZM167.385 124.488V128.341H163.531V124.488H167.385ZM171.238 124.488V128.341H167.385V124.488H171.238ZM175.092 124.488V128.341H171.238V124.488H175.092ZM175.092 120.634V124.488H171.238V120.634H175.092ZM175.092 116.78V120.634H171.238V116.78H175.092ZM175.092 112.927V116.78H171.238V112.927H175.092ZM175.092 109.073V112.927H171.238V109.073H175.092ZM175.092 105.22V109.073H171.238V105.22H175.092ZM175.092 101.366V105.22H171.238V101.366H175.092ZM175.092 97.5122V101.366H171.238V97.5122H175.092ZM171.238 97.5122V101.366H167.385V97.5122H171.238ZM171.238 93.6585V97.5122H167.385V93.6585H171.238ZM171.238 101.366V105.22H167.385V101.366H171.238ZM171.238 105.22V109.073H167.385V105.22H171.238ZM171.238 109.073V112.927H167.385V109.073H171.238ZM171.238 112.927V116.78H167.385V112.927H171.238ZM171.238 116.78V120.634H167.385V116.78H171.238ZM171.238 120.634V124.488H167.385V120.634H171.238ZM163.531 124.488V128.341H159.677V124.488H163.531ZM163.531 120.634V124.488H159.677V120.634H163.531ZM163.531 116.78V120.634H159.677V116.78H163.531ZM163.531 112.927V116.78H159.677V112.927H163.531ZM163.531 109.073V112.927H159.677V109.073H163.531ZM163.531 105.22V109.073H159.677V105.22H163.531ZM163.531 101.366V105.22H159.677V101.366H163.531ZM163.531 97.5122V101.366H159.677V97.5122H163.531ZM159.677 39.7073V43.561H155.824V39.7073H159.677ZM159.677 43.561V47.4146H155.824V43.561H159.677ZM159.677 47.4146V51.2683H155.824V47.4146H159.677ZM159.677 51.2683V55.122H155.824V51.2683H159.677ZM159.677 55.122V58.9756H155.824V55.122H159.677ZM159.677 58.9756V62.8293H155.824V58.9756H159.677ZM159.677 62.8293V66.6829H155.824V62.8293H159.677ZM159.677 66.6829V70.5366H155.824V66.6829H159.677ZM171.238 51.2683V55.122H167.385V51.2683H171.238ZM171.238 58.9756V62.8293H167.385V58.9756H171.238ZM171.238 62.8293V66.6829H167.385V62.8293H171.238ZM171.238 66.6829V70.5366H167.385V66.6829H171.238ZM171.238 70.5366V74.3902H167.385V70.5366H171.238ZM171.238 74.3902V78.2439H167.385V74.3902H171.238ZM171.238 78.2439V82.0976H167.385V78.2439H171.238ZM171.238 82.0976V85.9512H167.385V82.0976H171.238ZM175.092 85.9512V89.8049H171.238V85.9512H175.092ZM175.092 89.8049V93.6585H171.238V89.8049H175.092ZM175.092 93.6585V97.5122H171.238V93.6585H175.092ZM175.092 82.0976V85.9512H171.238V82.0976H175.092ZM175.092 78.2439V82.0976H171.238V78.2439H175.092ZM175.092 74.3902V78.2439H171.238V74.3902H175.092ZM175.092 70.5366V74.3902H171.238V70.5366H175.092ZM175.092 66.6829V70.5366H171.238V66.6829H175.092ZM175.092 62.8293V66.6829H171.238V62.8293H175.092ZM175.092 58.9756V62.8293H171.238V58.9756H175.092ZM175.092 55.122V58.9756H171.238V55.122H175.092ZM171.238 55.122V58.9756H167.385V55.122H171.238ZM167.385 47.4146V51.2683H163.531V47.4146H167.385ZM167.385 51.2683V55.122H163.531V51.2683H167.385ZM167.385 55.122V58.9756H163.531V55.122H167.385ZM167.385 58.9756V62.8293H163.531V58.9756H167.385ZM163.531 62.8293V66.6829H159.677V62.8293H163.531ZM163.531 66.6829V70.5366H159.677V66.6829H163.531ZM163.531 58.9756V62.8293H159.677V58.9756H163.531ZM163.531 55.122V58.9756H159.677V55.122H163.531ZM163.531 51.2683V55.122H159.677V51.2683H163.531ZM163.531 47.4146V51.2683H159.677V47.4146H163.531ZM163.531 43.561V47.4146H159.677V43.561H163.531ZM167.385 62.8293V66.6829H163.531V62.8293H167.385ZM167.385 66.6829V70.5366H163.531V66.6829H167.385ZM167.385 70.5366V74.3902H163.531V70.5366H167.385ZM167.385 74.3902V78.2439H163.531V74.3902H167.385ZM167.385 78.2439V82.0976H163.531V78.2439H167.385ZM167.385 82.0976V85.9512H163.531V82.0976H167.385ZM167.385 85.9512V89.8049H163.531V85.9512H167.385ZM167.385 89.8049V93.6585H163.531V89.8049H167.385ZM167.385 93.6585V97.5122H163.531V93.6585H167.385ZM171.238 89.8049V93.6585H167.385V89.8049H171.238ZM171.238 85.9512V89.8049H167.385V85.9512H171.238ZM140.409 32V35.8537H136.556V32H140.409ZM144.263 32V35.8537H140.409V32H144.263ZM148.117 32V35.8537H144.263V32H148.117ZM151.97 32V35.8537H148.117V32H151.97ZM155.824 35.8537V39.7073H151.97V35.8537H155.824ZM151.97 35.8537V39.7073H148.117V35.8537H151.97ZM148.117 35.8537V39.7073H144.263V35.8537H148.117ZM144.263 35.8537V39.7073H140.409V35.8537H144.263ZM140.409 35.8537V39.7073H136.556V35.8537H140.409ZM136.556 35.8537V39.7073H132.702V35.8537H136.556ZM136.556 39.7073V43.561H132.702V39.7073H136.556ZM136.556 43.561V47.4146H132.702V43.561H136.556ZM140.409 39.7073V43.561H136.556V39.7073H140.409ZM144.263 39.7073V43.561H140.409V39.7073H144.263ZM148.117 39.7073V43.561H144.263V39.7073H148.117ZM151.97 39.7073V43.561H148.117V39.7073H151.97ZM155.824 39.7073V43.561H151.97V39.7073H155.824ZM155.824 43.561V47.4146H151.97V43.561H155.824ZM151.97 43.561V47.4146H148.117V43.561H151.97ZM148.117 43.561V47.4146H144.263V43.561H148.117ZM144.263 43.561V47.4146H140.409V43.561H144.263ZM140.409 43.561V47.4146H136.556V43.561H140.409ZM136.556 47.4146V51.2683H132.702V47.4146H136.556ZM140.409 47.4146V51.2683H136.556V47.4146H140.409ZM155.824 47.4146V51.2683H151.97V47.4146H155.824ZM151.97 47.4146V51.2683H148.117V47.4146H151.97ZM155.824 51.2683V55.122H151.97V51.2683H155.824ZM136.556 51.2683V55.122H132.702V51.2683H136.556ZM128.848 43.561V47.4146H124.995V43.561H128.848ZM128.848 47.4146V51.2683H124.995V47.4146H128.848ZM124.995 47.4146V51.2683H121.141V47.4146H124.995ZM121.141 51.2683V55.122H117.287V51.2683H121.141ZM117.287 55.122V58.9756H113.434V55.122H117.287ZM136.556 55.122V58.9756H132.702V55.122H136.556ZM140.409 51.2683V55.122H136.556V51.2683H140.409ZM144.263 47.4146V51.2683H140.409V47.4146H144.263ZM148.117 47.4146V51.2683H144.263V47.4146H148.117ZM151.97 51.2683V55.122H148.117V51.2683H151.97ZM155.824 55.122V58.9756H151.97V55.122H155.824ZM136.556 101.366V105.22H132.702V101.366H136.556ZM140.409 101.366V105.22H136.556V101.366H140.409ZM144.263 101.366V105.22H140.409V101.366H144.263ZM148.117 101.366V105.22H144.263V101.366H148.117ZM151.97 101.366V105.22H148.117V101.366H151.97ZM155.824 101.366V105.22H151.97V101.366H155.824ZM155.824 97.5122V101.366H151.97V97.5122H155.824ZM151.97 97.5122V101.366H148.117V97.5122H151.97ZM148.117 97.5122V101.366H144.263V97.5122H148.117ZM144.263 97.5122V101.366H140.409V97.5122H144.263ZM140.409 97.5122V101.366H136.556V97.5122H140.409ZM136.556 97.5122V101.366H132.702V97.5122H136.556ZM136.556 93.6585V97.5122H132.702V93.6585H136.556ZM140.409 93.6585V97.5122H136.556V93.6585H140.409ZM144.263 93.6585V97.5122H140.409V93.6585H144.263ZM148.117 93.6585V97.5122H144.263V93.6585H148.117ZM151.97 93.6585V97.5122H148.117V93.6585H151.97ZM155.824 93.6585V97.5122H151.97V93.6585H155.824ZM155.824 89.8049V93.6585H151.97V89.8049H155.824ZM151.97 89.8049V93.6585H148.117V89.8049H151.97ZM148.117 89.8049V93.6585H144.263V89.8049H148.117ZM144.263 89.8049V93.6585H140.409V89.8049H144.263ZM140.409 89.8049V93.6585H136.556V89.8049H140.409ZM136.556 89.8049V93.6585H132.702V89.8049H136.556ZM136.556 85.9512V89.8049H132.702V85.9512H136.556ZM140.409 85.9512V89.8049H136.556V85.9512H140.409ZM144.263 85.9512V89.8049H140.409V85.9512H144.263ZM148.117 85.9512V89.8049H144.263V85.9512H148.117ZM151.97 85.9512V89.8049H148.117V85.9512H151.97ZM155.824 85.9512V89.8049H151.97V85.9512H155.824ZM144.263 51.2683V55.122H140.409V51.2683H144.263ZM148.117 51.2683V55.122H144.263V51.2683H148.117ZM140.409 55.122V58.9756H136.556V55.122H140.409ZM136.556 58.9756V62.8293H132.702V58.9756H136.556ZM151.97 55.122V58.9756H148.117V55.122H151.97ZM155.824 58.9756V62.8293H151.97V58.9756H155.824Z" fill="white"/>
<path d="M47.8537 124.488V128.341H44V124.488H47.8537ZM47.8537 120.634V124.488H44V120.634H47.8537ZM47.8537 116.78V120.634H44V116.78H47.8537ZM47.8537 112.927V116.78H44V112.927H47.8537ZM47.8537 109.073V112.927H44V109.073H47.8537ZM47.8537 105.22V109.073H44V105.22H47.8537ZM47.8537 101.366V105.22H44V101.366H47.8537ZM47.8537 97.5122V101.366H44V97.5122H47.8537ZM47.8537 93.6585V97.5122H44V93.6585H47.8537ZM47.8537 89.8049V93.6585H44V89.8049H47.8537ZM47.8537 85.9512V89.8049H44V85.9512H47.8537ZM47.8537 82.0976V85.9512H44V82.0976H47.8537ZM47.8537 78.2439V82.0976H44V78.2439H47.8537ZM47.8537 74.3902V78.2439H44V74.3902H47.8537ZM47.8537 70.5366V74.3902H44V70.5366H47.8537ZM51.7073 70.5366V74.3902H47.8537V70.5366H51.7073ZM51.7073 74.3902V78.2439H47.8537V74.3902H51.7073ZM51.7073 78.2439V82.0976H47.8537V78.2439H51.7073ZM51.7073 82.0976V85.9512H47.8537V82.0976H51.7073ZM51.7073 85.9512V89.8049H47.8537V85.9512H51.7073ZM51.7073 89.8049V93.6585H47.8537V89.8049H51.7073ZM51.7073 93.6585V97.5122H47.8537V93.6585H51.7073ZM55.561 97.5122V101.366H51.7073V97.5122H55.561ZM55.561 101.366V105.22H51.7073V101.366H55.561ZM55.561 105.22V109.073H51.7073V105.22H55.561ZM55.561 109.073V112.927H51.7073V109.073H55.561ZM55.561 112.927V116.78H51.7073V112.927H55.561ZM55.561 116.78V120.634H51.7073V116.78H55.561ZM55.561 120.634V124.488H51.7073V120.634H55.561ZM55.561 124.488V128.341H51.7073V124.488H55.561ZM59.4146 124.488V128.341H55.561V124.488H59.4146ZM63.2683 124.488V128.341H59.4146V124.488H63.2683ZM63.2683 120.634V124.488H59.4146V120.634H63.2683ZM63.2683 116.78V120.634H59.4146V116.78H63.2683ZM63.2683 112.927V116.78H59.4146V112.927H63.2683ZM63.2683 109.073V112.927H59.4146V109.073H63.2683ZM63.2683 105.22V109.073H59.4146V105.22H63.2683ZM63.2683 101.366V105.22H59.4146V101.366H63.2683ZM63.2683 97.5122V101.366H59.4146V97.5122H63.2683ZM59.4146 97.5122V101.366H55.561V97.5122H59.4146ZM59.4146 93.6585V97.5122H55.561V93.6585H59.4146ZM59.4146 101.366V105.22H55.561V101.366H59.4146ZM59.4146 105.22V109.073H55.561V105.22H59.4146ZM59.4146 109.073V112.927H55.561V109.073H59.4146ZM59.4146 112.927V116.78H55.561V112.927H59.4146ZM59.4146 116.78V120.634H55.561V116.78H59.4146ZM59.4146 120.634V124.488H55.561V120.634H59.4146ZM51.7073 124.488V128.341H47.8537V124.488H51.7073ZM51.7073 120.634V124.488H47.8537V120.634H51.7073ZM51.7073 116.78V120.634H47.8537V116.78H51.7073ZM51.7073 112.927V116.78H47.8537V112.927H51.7073ZM51.7073 109.073V112.927H47.8537V109.073H51.7073ZM51.7073 105.22V109.073H47.8537V105.22H51.7073ZM51.7073 101.366V105.22H47.8537V101.366H51.7073ZM51.7073 97.5122V101.366H47.8537V97.5122H51.7073ZM47.8537 32V35.8537H44V32H47.8537ZM47.8537 35.8537V39.7073H44V35.8537H47.8537ZM47.8537 39.7073V43.561H44V39.7073H47.8537ZM47.8537 43.561V47.4146H44V43.561H47.8537ZM47.8537 47.4146V51.2683H44V47.4146H47.8537ZM47.8537 51.2683V55.122H44V51.2683H47.8537ZM47.8537 55.122V58.9756H44V55.122H47.8537ZM47.8537 58.9756V62.8293H44V58.9756H47.8537ZM47.8537 62.8293V66.6829H44V62.8293H47.8537ZM47.8537 66.6829V70.5366H44V66.6829H47.8537ZM59.4146 32V35.8537H55.561V32H59.4146ZM59.4146 35.8537V39.7073H55.561V35.8537H59.4146ZM59.4146 39.7073V43.561H55.561V39.7073H59.4146ZM59.4146 43.561V47.4146H55.561V43.561H59.4146ZM59.4146 47.4146V51.2683H55.561V47.4146H59.4146ZM59.4146 51.2683V55.122H55.561V51.2683H59.4146ZM59.4146 58.9756V62.8293H55.561V58.9756H59.4146ZM59.4146 62.8293V66.6829H55.561V62.8293H59.4146ZM59.4146 66.6829V70.5366H55.561V66.6829H59.4146ZM59.4146 70.5366V74.3902H55.561V70.5366H59.4146ZM59.4146 74.3902V78.2439H55.561V74.3902H59.4146ZM59.4146 78.2439V82.0976H55.561V78.2439H59.4146ZM59.4146 82.0976V85.9512H55.561V82.0976H59.4146ZM63.2683 85.9512V89.8049H59.4146V85.9512H63.2683ZM63.2683 89.8049V93.6585H59.4146V89.8049H63.2683ZM63.2683 93.6585V97.5122H59.4146V93.6585H63.2683ZM63.2683 82.0976V85.9512H59.4146V82.0976H63.2683ZM63.2683 78.2439V82.0976H59.4146V78.2439H63.2683ZM63.2683 74.3902V78.2439H59.4146V74.3902H63.2683ZM63.2683 70.5366V74.3902H59.4146V70.5366H63.2683ZM63.2683 66.6829V70.5366H59.4146V66.6829H63.2683ZM63.2683 62.8293V66.6829H59.4146V62.8293H63.2683ZM63.2683 58.9756V62.8293H59.4146V58.9756H63.2683ZM63.2683 55.122V58.9756H59.4146V55.122H63.2683ZM63.2683 51.2683V55.122H59.4146V51.2683H63.2683ZM63.2683 47.4146V51.2683H59.4146V47.4146H63.2683ZM59.4146 55.122V58.9756H55.561V55.122H59.4146ZM63.2683 43.561V47.4146H59.4146V43.561H63.2683ZM63.2683 39.7073V43.561H59.4146V39.7073H63.2683ZM63.2683 35.8537V39.7073H59.4146V35.8537H63.2683ZM63.2683 32V35.8537H59.4146V32H63.2683ZM55.561 32V35.8537H51.7073V32H55.561ZM51.7073 32V35.8537H47.8537V32H51.7073ZM51.7073 35.8537V39.7073H47.8537V35.8537H51.7073ZM55.561 35.8537V39.7073H51.7073V35.8537H55.561ZM55.561 39.7073V43.561H51.7073V39.7073H55.561ZM55.561 43.561V47.4146H51.7073V43.561H55.561ZM55.561 47.4146V51.2683H51.7073V47.4146H55.561ZM55.561 51.2683V55.122H51.7073V51.2683H55.561ZM55.561 55.122V58.9756H51.7073V55.122H55.561ZM55.561 58.9756V62.8293H51.7073V58.9756H55.561ZM51.7073 62.8293V66.6829H47.8537V62.8293H51.7073ZM51.7073 66.6829V70.5366H47.8537V66.6829H51.7073ZM51.7073 58.9756V62.8293H47.8537V58.9756H51.7073ZM51.7073 55.122V58.9756H47.8537V55.122H51.7073ZM51.7073 51.2683V55.122H47.8537V51.2683H51.7073ZM51.7073 47.4146V51.2683H47.8537V47.4146H51.7073ZM51.7073 43.561V47.4146H47.8537V43.561H51.7073ZM51.7073 39.7073V43.561H47.8537V39.7073H51.7073ZM55.561 62.8293V66.6829H51.7073V62.8293H55.561ZM55.561 66.6829V70.5366H51.7073V66.6829H55.561ZM55.561 70.5366V74.3902H51.7073V70.5366H55.561ZM55.561 74.3902V78.2439H51.7073V74.3902H55.561ZM55.561 78.2439V82.0976H51.7073V78.2439H55.561ZM55.561 82.0976V85.9512H51.7073V82.0976H55.561ZM55.561 85.9512V89.8049H51.7073V85.9512H55.561ZM55.561 89.8049V93.6585H51.7073V89.8049H55.561ZM55.561 93.6585V97.5122H51.7073V93.6585H55.561ZM59.4146 89.8049V93.6585H55.561V89.8049H59.4146ZM59.4146 85.9512V89.8049H55.561V85.9512H59.4146ZM67.122 78.2439V82.0976H63.2683V78.2439H67.122ZM70.9756 78.2439V82.0976H67.122V78.2439H70.9756ZM70.9756 82.0976V85.9512H67.122V82.0976H70.9756ZM67.122 82.0976V85.9512H63.2683V82.0976H67.122ZM67.122 70.5366V74.3902H63.2683V70.5366H67.122ZM70.9756 70.5366V74.3902H67.122V70.5366H70.9756ZM67.122 85.9512V89.8049H63.2683V85.9512H67.122ZM70.9756 85.9512V89.8049H67.122V85.9512H70.9756ZM70.9756 74.3902V78.2439H67.122V74.3902H70.9756ZM67.122 74.3902V78.2439H63.2683V74.3902H67.122ZM67.122 32V35.8537H63.2683V32H67.122ZM70.9756 32V35.8537H67.122V32H70.9756ZM70.9756 35.8537V39.7073H67.122V35.8537H70.9756ZM67.122 35.8537V39.7073H63.2683V35.8537H67.122ZM67.122 39.7073V43.561H63.2683V39.7073H67.122ZM70.9756 39.7073V43.561H67.122V39.7073H70.9756ZM70.9756 43.561V47.4146H67.122V43.561H70.9756ZM67.122 43.561V47.4146H63.2683V43.561H67.122ZM67.122 47.4146V51.2683H63.2683V47.4146H67.122ZM70.9756 47.4146V51.2683H67.122V47.4146H70.9756ZM74.8293 70.5366V74.3902H70.9756V70.5366H74.8293ZM78.6829 70.5366V74.3902H74.8293V70.5366H78.6829ZM82.5366 70.5366V74.3902H78.6829V70.5366H82.5366ZM82.5366 47.4146V51.2683H78.6829V47.4146H82.5366ZM78.6829 47.4146V51.2683H74.8293V47.4146H78.6829ZM74.8293 47.4146V51.2683H70.9756V47.4146H74.8293ZM74.8293 32V35.8537H70.9756V32H74.8293ZM78.6829 32V35.8537H74.8293V32H78.6829ZM82.5366 32V35.8537H78.6829V32H82.5366ZM82.5366 43.561V47.4146H78.6829V43.561H82.5366ZM82.5366 39.7073V43.561H78.6829V39.7073H82.5366ZM78.6829 39.7073V43.561H74.8293V39.7073H78.6829ZM74.8293 39.7073V43.561H70.9756V39.7073H74.8293ZM74.8293 35.8537V39.7073H70.9756V35.8537H74.8293ZM78.6829 35.8537V39.7073H74.8293V35.8537H78.6829ZM82.5366 35.8537V39.7073H78.6829V35.8537H82.5366ZM74.8293 43.561V47.4146H70.9756V43.561H74.8293ZM78.6829 43.561V47.4146H74.8293V43.561H78.6829ZM82.5366 78.2439V82.0976H78.6829V78.2439H82.5366ZM78.6829 78.2439V82.0976H74.8293V78.2439H78.6829ZM74.8293 78.2439V82.0976H70.9756V78.2439H74.8293ZM74.8293 74.3902V78.2439H70.9756V74.3902H74.8293ZM78.6829 74.3902V78.2439H74.8293V74.3902H78.6829ZM82.5366 74.3902V78.2439H78.6829V74.3902H82.5366ZM74.8293 82.0976V85.9512H70.9756V82.0976H74.8293ZM78.6829 82.0976V85.9512H74.8293V82.0976H78.6829ZM82.5366 82.0976V85.9512H78.6829V82.0976H82.5366ZM82.5366 85.9512V89.8049H78.6829V85.9512H82.5366ZM78.6829 85.9512V89.8049H74.8293V85.9512H78.6829ZM74.8293 85.9512V89.8049H70.9756V85.9512H74.8293ZM105.659 47.4146V51.2683H101.805V47.4146H105.659ZM86.3902 32V35.8537H82.5366V32H86.3902ZM90.2439 32V35.8537H86.3902V32H90.2439ZM94.0976 32V35.8537H90.2439V32H94.0976ZM97.9512 32V35.8537H94.0976V32H97.9512ZM101.805 32V35.8537H97.9512V32H101.805ZM101.805 35.8537V39.7073H97.9512V35.8537H101.805ZM105.659 35.8537V39.7073H101.805V35.8537H105.659ZM105.659 39.7073V43.561H101.805V39.7073H105.659ZM105.659 32V35.8537H101.805V32H105.659ZM105.659 43.561V47.4146H101.805V43.561H105.659ZM101.805 43.561V47.4146H97.9512V43.561H101.805ZM97.9512 43.561V47.4146H94.0976V43.561H97.9512ZM94.0976 43.561V47.4146H90.2439V43.561H94.0976ZM90.2439 43.561V47.4146H86.3902V43.561H90.2439ZM86.3902 43.561V47.4146H82.5366V43.561H86.3902ZM86.3902 39.7073V43.561H82.5366V39.7073H86.3902ZM86.3902 35.8537V39.7073H82.5366V35.8537H86.3902ZM90.2439 35.8537V39.7073H86.3902V35.8537H90.2439ZM94.0976 35.8537V39.7073H90.2439V35.8537H94.0976ZM97.9512 35.8537V39.7073H94.0976V35.8537H97.9512ZM97.9512 39.7073V43.561H94.0976V39.7073H97.9512ZM101.805 39.7073V43.561H97.9512V39.7073H101.805ZM94.0976 39.7073V43.561H90.2439V39.7073H94.0976ZM90.2439 39.7073V43.561H86.3902V39.7073H90.2439ZM86.3902 47.4146V51.2683H82.5366V47.4146H86.3902ZM90.2439 47.4146V51.2683H86.3902V47.4146H90.2439ZM94.0976 47.4146V51.2683H90.2439V47.4146H94.0976ZM97.9512 47.4146V51.2683H94.0976V47.4146H97.9512ZM101.805 47.4146V51.2683H97.9512V47.4146H101.805ZM86.3902 70.5366V74.3902H82.5366V70.5366H86.3902ZM86.3902 74.3902V78.2439H82.5366V74.3902H86.3902ZM86.3902 78.2439V82.0976H82.5366V78.2439H86.3902ZM86.3902 82.0976V85.9512H82.5366V82.0976H86.3902ZM90.2439 82.0976V85.9512H86.3902V82.0976H90.2439ZM90.2439 85.9512V89.8049H86.3902V85.9512H90.2439ZM86.3902 85.9512V89.8049H82.5366V85.9512H86.3902ZM90.2439 70.5366V74.3902H86.3902V70.5366H90.2439ZM90.2439 74.3902V78.2439H86.3902V74.3902H90.2439ZM90.2439 78.2439V82.0976H86.3902V78.2439H90.2439ZM94.0976 78.2439V82.0976H90.2439V78.2439H94.0976ZM97.9512 78.2439V82.0976H94.0976V78.2439H97.9512ZM97.9512 74.3902V78.2439H94.0976V74.3902H97.9512ZM97.9512 70.5366V74.3902H94.0976V70.5366H97.9512ZM94.0976 70.5366V74.3902H90.2439V70.5366H94.0976ZM94.0976 74.3902V78.2439H90.2439V74.3902H94.0976ZM94.0976 82.0976V85.9512H90.2439V82.0976H94.0976ZM94.0976 85.9512V89.8049H90.2439V85.9512H94.0976ZM97.9512 85.9512V89.8049H94.0976V85.9512H97.9512ZM97.9512 82.0976V85.9512H94.0976V82.0976H97.9512Z" fill="white"/>
</svg>
