<svg width="32" height="32" viewBox="0 0 32 32" fill="none" xmlns="http://www.w3.org/2000/svg">
<g clip-path="url(#clip0_76_23)">
<path d="M26 0H6C2.68629 0 0 2.68629 0 6V26C0 29.3137 2.68629 32 6 32H26C29.3137 32 32 29.3137 32 26V6C32 2.68629 29.3137 0 26 0Z" fill="#48BB78"/>
<path d="M9.87357 21.4997V22.3747H9V21.4997H9.87357ZM9.87357 20.6248V21.4997H9V20.6248H9.87357ZM9.87357 19.7498V20.6248H9V19.7498H9.87357ZM9.87357 18.8748V19.7498H9V18.8748H9.87357ZM9.87357 17.9998V18.8748H9V17.9998H9.87357ZM9.87357 17.1248V17.9998H9V17.1248H9.87357ZM9.87357 16.2498V17.1248H9V16.2498H9.87357ZM9.87357 15.3748V16.2498H9V15.3748H9.87357ZM9.87357 14.4998V15.3748H9V14.4998H9.87357ZM9.87357 13.6248V14.4998H9V13.6248H9.87357ZM9.87357 12.7499V13.6248H9V12.7499H9.87357ZM10.7469 12.7499V13.6248H9.87357V12.7499H10.7469ZM10.7469 13.6248V14.4998H9.87357V13.6248H10.7469ZM10.7469 14.4998V15.3748H9.87357V14.4998H10.7469ZM10.7469 15.3748V16.2498H9.87357V15.3748H10.7469ZM10.7469 16.2498V17.1248H9.87357V16.2498H10.7469ZM10.7469 17.1248V17.9998H9.87357V17.1248H10.7469ZM10.7469 17.9998V18.8748H9.87357V17.9998H10.7469ZM11.6205 18.8748V19.7498H10.7469V18.8748H11.6205ZM11.6205 19.7498V20.6248H10.7469V19.7498H11.6205ZM11.6205 20.6248V21.4997H10.7469V20.6248H11.6205ZM11.6205 21.4997V22.3747H10.7469V21.4997H11.6205ZM11.6205 22.3747V23.2496H10.7469V22.3747H11.6205ZM11.6205 23.2496V24.1246H10.7469V23.2496H11.6205ZM11.6205 24.1246V24.9997H10.7469V24.1246H11.6205ZM13.3674 24.9997V25.8745H12.4941V24.9997H13.3674ZM13.3674 24.1246V24.9997H12.4941V24.1246H13.3674ZM13.3674 23.2496V24.1246H12.4941V23.2496H13.3674ZM13.3674 22.3747V23.2496H12.4941V22.3747H13.3674ZM13.3674 21.4997V22.3747H12.4941V21.4997H13.3674ZM13.3674 20.6248V21.4997H12.4941V20.6248H13.3674ZM13.3674 19.7498V20.6248H12.4941V19.7498H13.3674ZM13.3674 18.8748V19.7498H12.4941V18.8748H13.3674ZM12.4941 18.8748V19.7498H11.6205V18.8748H12.4941ZM12.4941 17.9998V18.8748H11.6205V17.9998H12.4941ZM12.4941 19.7498V20.6248H11.6205V19.7498H12.4941ZM12.4941 20.6248V21.4997H11.6205V20.6248H12.4941ZM12.4941 21.4997V22.3747H11.6205V21.4997H12.4941ZM12.4941 22.3747V23.2496H11.6205V22.3747H12.4941ZM12.4941 23.2496V24.1246H11.6205V23.2496H12.4941ZM12.4941 24.1246V24.9997H11.6205V24.1246H12.4941ZM10.7469 23.2496V24.1246H9.87357V23.2496H10.7469ZM10.7469 22.3747V23.2496H9.87357V22.3747H10.7469ZM10.7469 21.4997V22.3747H9.87357V21.4997H10.7469ZM10.7469 20.6248V21.4997H9.87357V20.6248H10.7469ZM10.7469 19.7498V20.6248H9.87357V19.7498H10.7469ZM10.7469 18.8748V19.7498H9.87357V18.8748H10.7469ZM9.87357 11.8749V12.7499H9V11.8749H9.87357ZM12.4941 11.8749V12.7499H11.6205V11.8749H12.4941ZM12.4941 12.7499V13.6248H11.6205V12.7499H12.4941ZM12.4941 13.6248V14.4998H11.6205V13.6248H12.4941ZM12.4941 14.4998V15.3748H11.6205V14.4998H12.4941ZM12.4941 15.3748V16.2498H11.6205V15.3748H12.4941ZM13.3674 16.2498V17.1248H12.4941V16.2498H13.3674ZM13.3674 17.1248V17.9998H12.4941V17.1248H13.3674ZM13.3674 17.9998V18.8748H12.4941V17.9998H13.3674ZM13.3674 15.3748V16.2498H12.4941V15.3748H13.3674ZM13.3674 14.4998V15.3748H12.4941V14.4998H13.3674ZM13.3674 13.6248V14.4998H12.4941V13.6248H13.3674ZM13.3674 12.7499V13.6248H12.4941V12.7499H13.3674ZM13.3674 11.8749V12.7499H12.4941V11.8749H13.3674ZM10.7469 11.8749V12.7499H9.87357V11.8749H10.7469ZM11.6205 11.8749V12.7499H10.7469V11.8749H11.6205ZM11.6205 12.7499V13.6248H10.7469V12.7499H11.6205ZM11.6205 13.6248V14.4998H10.7469V13.6248H11.6205ZM11.6205 14.4998V15.3748H10.7469V14.4998H11.6205ZM11.6205 15.3748V16.2498H10.7469V15.3748H11.6205ZM11.6205 16.2498V17.1248H10.7469V16.2498H11.6205ZM11.6205 17.1248V17.9998H10.7469V17.1248H11.6205ZM11.6205 17.9998V18.8748H10.7469V17.9998H11.6205ZM12.4941 17.1248V17.9998H11.6205V17.1248H12.4941ZM12.4941 16.2498V17.1248H11.6205V16.2498H12.4941ZM20.3555 23.2496V24.1246H19.482V23.2496H20.3555ZM20.3555 22.3747V23.2496H19.482V22.3747H20.3555ZM20.3555 21.4997V22.3747H19.482V21.4997H20.3555ZM20.3555 20.6248V21.4997H19.482V20.6248H20.3555ZM20.3555 19.7498V20.6248H19.482V19.7498H20.3555ZM20.3555 18.8748V19.7498H19.482V18.8748H20.3555ZM20.3555 17.9998V18.8748H19.482V17.9998H20.3555ZM20.3555 17.1248V17.9998H19.482V17.1248H20.3555ZM20.3555 16.2498V17.1248H19.482V16.2498H20.3555ZM20.3555 15.3748V16.2498H19.482V15.3748H20.3555ZM20.3555 14.4998V15.3748H19.482V14.4998H20.3555ZM20.3555 13.6248V14.4998H19.482V13.6248H20.3555ZM20.3555 12.7499V13.6248H19.482V12.7499H20.3555ZM21.2289 12.7499V13.6248H20.3555V12.7499H21.2289ZM21.2289 13.6248V14.4998H20.3555V13.6248H21.2289ZM21.2289 14.4998V15.3748H20.3555V14.4998H21.2289ZM21.2289 15.3748V16.2498H20.3555V15.3748H21.2289ZM21.2289 16.2498V17.1248H20.3555V16.2498H21.2289ZM21.2289 17.1248V17.9998H20.3555V17.1248H21.2289ZM21.2289 17.9998V18.8748H20.3555V17.9998H21.2289ZM22.1025 18.8748V19.7498H21.2289V18.8748H22.1025ZM22.1025 19.7498V20.6248H21.2289V19.7498H22.1025ZM22.1025 20.6248V21.4997H21.2289V20.6248H22.1025ZM22.1025 21.4997V22.3747H21.2289V21.4997H22.1025ZM22.1025 22.3747V23.2496H21.2289V22.3747H22.1025ZM22.1025 23.2496V24.1246H21.2289V23.2496H22.1025ZM23.8494 20.6248V21.4997H22.976V20.6248H23.8494ZM23.8494 19.7498V20.6248H22.976V19.7498H23.8494ZM23.8494 18.8748V19.7498H22.976V18.8748H23.8494ZM22.976 18.8748V19.7498H22.1025V18.8748H22.976ZM22.976 17.9998V18.8748H22.1025V17.9998H22.976ZM22.976 19.7498V20.6248H22.1025V19.7498H22.976ZM22.976 20.6248V21.4997H22.1025V20.6248H22.976ZM22.976 21.4997V22.3747H22.1025V21.4997H22.976ZM22.976 22.3747V23.2496H22.1025V22.3747H22.976ZM21.2289 23.2496V24.1246H20.3555V23.2496H21.2289ZM21.2289 22.3747V23.2496H20.3555V22.3747H21.2289ZM21.2289 21.4997V22.3747H20.3555V21.4997H21.2289ZM21.2289 20.6248V21.4997H20.3555V20.6248H21.2289ZM21.2289 19.7498V20.6248H20.3555V19.7498H21.2289ZM21.2289 18.8748V19.7498H20.3555V18.8748H21.2289ZM20.3555 11.8749V12.7499H19.482V11.8749H20.3555ZM22.976 11.8749V12.7499H22.1025V11.8749H22.976ZM22.976 12.7499V13.6248H22.1025V12.7499H22.976ZM22.976 13.6248V14.4998H22.1025V13.6248H22.976ZM22.976 14.4998V15.3748H22.1025V14.4998H22.976ZM22.976 15.3748V16.2498H22.1025V15.3748H22.976ZM23.8494 16.2498V17.1248H22.976V16.2498H23.8494ZM23.8494 17.1248V17.9998H22.976V17.1248H23.8494ZM23.8494 17.9998V18.8748H22.976V17.9998H23.8494ZM23.8494 15.3748V16.2498H22.976V15.3748H23.8494ZM23.8494 14.4998V15.3748H22.976V14.4998H23.8494ZM23.8494 13.6248V14.4998H22.976V13.6248H23.8494ZM23.8494 12.7499V13.6248H22.976V12.7499H23.8494ZM23.8494 11.8749V12.7499H22.976V11.8749H23.8494ZM21.2289 11.8749V12.7499H20.3555V11.8749H21.2289ZM22.1025 11.8749V12.7499H21.2289V11.8749H22.1025ZM22.1025 12.7499V13.6248H21.2289V12.7499H22.1025ZM22.1025 13.6248V14.4998H21.2289V13.6248H22.1025ZM22.1025 14.4998V15.3748H21.2289V14.4998H22.1025ZM22.1025 15.3748V16.2498H21.2289V15.3748H22.1025ZM22.1025 16.2498V17.1248H21.2289V16.2498H22.1025ZM22.1025 17.1248V17.9998H21.2289V17.1248H22.1025ZM22.1025 17.9998V18.8748H21.2289V17.9998H22.1025ZM22.976 17.1248V17.9998H22.1025V17.1248H22.976ZM22.976 16.2498V17.1248H22.1025V16.2498H22.976ZM14.241 24.9997V25.8745H13.3674V24.9997H14.241ZM15.1146 24.9997V25.8745H14.241V24.9997H15.1146ZM15.9879 24.9997V25.8745H15.1146V24.9997H15.9879ZM17.7351 24.9997V25.8745H16.8615V24.9997H17.7351ZM18.6084 24.9997V25.8745H17.7351V24.9997H18.6084ZM19.482 24.9997V25.8745H18.6084V24.9997H19.482ZM19.482 24.1246V24.9997H18.6084V24.1246H19.482ZM18.6084 24.1246V24.9997H17.7351V24.1246H18.6084ZM17.7351 24.1246V24.9997H16.8615V24.1246H17.7351ZM15.9879 24.1246V24.9997H15.1146V24.1246H15.9879ZM15.1146 24.1246V24.9997H14.241V24.1246H15.1146ZM14.241 24.1246V24.9997H13.3674V24.1246H14.241ZM14.241 23.2496V24.1246H13.3674V23.2496H14.241ZM15.1146 23.2496V24.1246H14.241V23.2496H15.1146ZM15.9879 23.2496V24.1246H15.1146V23.2496H15.9879ZM17.7351 23.2496V24.1246H16.8615V23.2496H17.7351ZM18.6084 23.2496V24.1246H17.7351V23.2496H18.6084ZM19.482 23.2496V24.1246H18.6084V23.2496H19.482ZM19.482 22.3747V23.2496H18.6084V22.3747H19.482ZM18.6084 22.3747V23.2496H17.7351V22.3747H18.6084ZM17.7351 22.3747V23.2496H16.8615V22.3747H17.7351ZM15.9879 22.3747V23.2496H15.1146V22.3747H15.9879ZM15.1146 22.3747V23.2496H14.241V22.3747H15.1146ZM14.241 22.3747V23.2496H13.3674V22.3747H14.241ZM14.241 21.4997V22.3747H13.3674V21.4997H14.241ZM19.482 21.4997V22.3747H18.6084V21.4997H19.482ZM22.976 8.37493V7.49993H23.8494V8.37493H22.976ZM22.976 9.24992V8.37493H23.8494V9.24992H22.976ZM22.976 10.1249V9.24992H23.8494V10.1249H22.976ZM21.2289 10.1249V9.24992H22.1025V10.1249H21.2289ZM21.2289 9.24992V8.37493H22.1025V9.24992H21.2289ZM21.2289 8.37493V7.49993H22.1025V8.37493H21.2289ZM21.2289 7.49993V6.62496H22.1025V7.49993H21.2289ZM21.2289 6.62496V5.74997H22.1025V6.62496H21.2289ZM21.2289 5.74997V4.87499H22.1025V5.74997H21.2289ZM19.482 4.87499V4H20.3555V4.87499H19.482ZM19.482 5.74997V4.87499H20.3555V5.74997H19.482ZM19.482 6.62496V5.74997H20.3555V6.62496H19.482ZM19.482 7.49993V6.62496H20.3555V7.49993H19.482ZM19.482 8.37493V7.49993H20.3555V8.37493H19.482ZM19.482 9.24992V8.37493H20.3555V9.24992H19.482ZM19.482 10.1249V9.24992H20.3555V10.1249H19.482ZM20.3555 10.1249V9.24992H21.2289V10.1249H20.3555ZM20.3555 9.24992V8.37493H21.2289V9.24992H20.3555ZM20.3555 8.37493V7.49993H21.2289V8.37493H20.3555ZM20.3555 7.49993V6.62496H21.2289V7.49993H20.3555ZM20.3555 6.62496V5.74997H21.2289V6.62496H20.3555ZM20.3555 5.74997V4.87499H21.2289V5.74997H20.3555ZM22.1025 6.62496V5.74997H22.976V6.62496H22.1025ZM22.1025 7.49993V6.62496H22.976V7.49993H22.1025ZM22.1025 8.37493V7.49993H22.976V8.37493H22.1025ZM22.1025 9.24992V8.37493H22.976V9.24992H22.1025ZM22.1025 10.1249V9.24992H22.976V10.1249H22.1025ZM12.4941 4.87499V4H13.3674V4.87499H12.4941ZM12.4941 5.74997V4.87499H13.3674V5.74997H12.4941ZM12.4941 6.62496V5.74997H13.3674V6.62496H12.4941ZM12.4941 7.49993V6.62496H13.3674V7.49993H12.4941ZM12.4941 8.37493V7.49993H13.3674V8.37493H12.4941ZM12.4941 9.24992V8.37493H13.3674V9.24992H12.4941ZM12.4941 10.1249V9.24992H13.3674V10.1249H12.4941ZM10.7469 10.1249V9.24992H11.6205V10.1249H10.7469ZM10.7469 9.24992V8.37493H11.6205V9.24992H10.7469ZM10.7469 8.37493V7.49993H11.6205V8.37493H10.7469ZM10.7469 7.49993V6.62496H11.6205V7.49993H10.7469ZM10.7469 6.62496V5.74997H11.6205V6.62496H10.7469ZM10.7469 5.74997V4.87499H11.6205V5.74997H10.7469ZM9 8.37493V7.49993H9.87357V8.37493H9ZM9 9.24992V8.37493H9.87357V9.24992H9ZM9 10.1249V9.24992H9.87357V10.1249H9ZM9.87357 10.1249V9.24992H10.7469V10.1249H9.87357ZM9.87357 9.24992V8.37493H10.7469V9.24992H9.87357ZM9.87357 8.37493V7.49993H10.7469V8.37493H9.87357ZM9.87357 7.49993V6.62496H10.7469V7.49993H9.87357ZM9.87357 6.62496V5.74997H10.7469V6.62496H9.87357ZM11.6205 5.74997V4.87499H12.4941V5.74997H11.6205ZM11.6205 6.62496V5.74997H12.4941V6.62496H11.6205ZM11.6205 7.49993V6.62496H12.4941V7.49993H11.6205ZM11.6205 8.37493V7.49993H12.4941V8.37493H11.6205ZM11.6205 9.24992V8.37493H12.4941V9.24992H11.6205ZM11.6205 10.1249V9.24992H12.4941V10.1249H11.6205ZM18.6084 4.87499V4H19.482V4.87499H18.6084ZM17.7351 4.87499V4H18.6084V4.87499H17.7351ZM16.8615 4.87499V4H17.7351V4.87499H16.8615ZM15.1146 4.87499V4H15.9879V4.87499H15.1146ZM14.241 4.87499V4H15.1146V4.87499H14.241ZM13.3674 4.87499V4H14.241V4.87499H13.3674ZM13.3674 5.74997V4.87499H14.241V5.74997H13.3674ZM14.241 5.74997V4.87499H15.1146V5.74997H14.241ZM15.1146 5.74997V4.87499H15.9879V5.74997H15.1146ZM16.8615 5.74997V4.87499H17.7351V5.74997H16.8615ZM17.7351 5.74997V4.87499H18.6084V5.74997H17.7351ZM18.6084 5.74997V4.87499H19.482V5.74997H18.6084ZM18.6084 6.62496V5.74997H19.482V6.62496H18.6084ZM17.7351 6.62496V5.74997H18.6084V6.62496H17.7351ZM16.8615 6.62496V5.74997H17.7351V6.62496H16.8615ZM15.1146 6.62496V5.74997H15.9879V6.62496H15.1146ZM14.241 6.62496V5.74997H15.1146V6.62496H14.241ZM13.3674 6.62496V5.74997H14.241V6.62496H13.3674ZM13.3674 7.49993V6.62496H14.241V7.49993H13.3674ZM14.241 7.49993V6.62496H15.1146V7.49993H14.241ZM15.1146 7.49993V6.62496H15.9879V7.49993H15.1146ZM16.8615 7.49993V6.62496H17.7351V7.49993H16.8615ZM17.7351 7.49993V6.62496H18.6084V7.49993H17.7351ZM18.6084 7.49993V6.62496H19.482V7.49993H18.6084ZM18.6084 8.37493V7.49993H19.482V8.37493H18.6084ZM13.3674 8.37493V7.49993H14.241V8.37493H13.3674ZM9.87357 10.9999V11.8749H9V10.9999H9.87357ZM10.7469 10.9999V11.8749H9.87357V10.9999H10.7469ZM9.87357 10.1249V10.9999H9V10.1249H9.87357ZM12.4941 10.1249V10.9999H11.6205V10.1249H12.4941ZM12.4941 10.9999V11.8749H11.6205V10.9999H12.4941ZM13.3674 10.9999V11.8749H12.4941V10.9999H13.3674ZM13.3674 10.1249V10.9999H12.4941V10.1249H13.3674ZM10.7469 10.1249V10.9999H9.87357V10.1249H10.7469ZM11.6205 10.1249V10.9999H10.7469V10.1249H11.6205ZM11.6205 10.9999V11.8749H10.7469V10.9999H11.6205ZM20.3555 10.9999V11.8749H19.482V10.9999H20.3555ZM21.2289 10.9999V11.8749H20.3555V10.9999H21.2289ZM20.3555 10.1249V10.9999H19.482V10.1249H20.3555ZM22.976 10.1249V10.9999H22.1025V10.1249H22.976ZM22.976 10.9999V11.8749H22.1025V10.9999H22.976ZM23.8494 10.9999V11.8749H22.976V10.9999H23.8494ZM23.8494 10.1249V10.9999H22.976V10.1249H23.8494ZM21.2289 10.1249V10.9999H20.3555V10.1249H21.2289ZM22.1025 10.1249V10.9999H21.2289V10.1249H22.1025ZM22.1025 10.9999V11.8749H21.2289V10.9999H22.1025ZM15.1146 21.4997V22.3747H14.241V21.4997H15.1146ZM15.9879 21.4997V22.3747H15.1146V21.4997H15.9879ZM17.7351 21.4997V22.3747H16.8615V21.4997H17.7351ZM18.6084 21.4997V22.3747H17.7351V21.4997H18.6084ZM19.482 20.6248V21.4997H18.6084V20.6248H19.482ZM14.241 20.6248V21.4997H13.3674V20.6248H14.241ZM15.1146 7.49993V8.37493H14.241V7.49993H15.1146ZM15.9879 7.49993V8.37493H15.1146V7.49993H15.9879ZM17.7351 7.49993V8.37493H16.8615V7.49993H17.7351ZM18.6084 7.49993V8.37493H17.7351V7.49993H18.6084ZM19.482 8.37493V9.24992H18.6084V8.37493H19.482ZM14.241 8.37493V9.24992H13.3674V8.37493H14.241ZM20.3555 24.1246V24.9997H19.482V24.1246H20.3555ZM20.3555 24.9997V25.8745H19.482V24.9997H20.3555ZM21.2289 24.9997V25.8745H20.3555V24.9997H21.2289ZM22.1025 24.9997V25.8745H21.2289V24.9997H22.1025ZM22.976 24.9997V25.8745H22.1025V24.9997H22.976ZM23.8494 24.9997V25.8745H22.976V24.9997H23.8494ZM23.8494 25.8745V26.7496H22.976V25.8745H23.8494ZM23.8494 26.7496V27.6247H22.976V26.7496H23.8494ZM23.8494 27.6247V28.4995H22.976V27.6247H23.8494ZM23.8494 28.4995V29.3745H22.976V28.4995H23.8494ZM22.976 28.4995V29.3745H22.1025V28.4995H22.976ZM22.1025 28.4995V29.3745H21.2289V28.4995H22.1025ZM21.2289 28.4995V29.3745H20.3555V28.4995H21.2289ZM20.3555 28.4995V29.3745H19.482V28.4995H20.3555ZM19.482 28.4995V29.3745H18.6084V28.4995H19.482ZM17.7351 25.8745V26.7496H16.8615V25.8745H17.7351ZM17.7351 26.7496V27.6247H16.8615V26.7496H17.7351ZM18.6084 27.6247V28.4995H17.7351V27.6247H18.6084ZM19.482 27.6247V28.4995H18.6084V27.6247H19.482ZM19.482 26.7496V27.6247H18.6084V26.7496H19.482ZM18.6084 26.7496V27.6247H17.7351V26.7496H18.6084ZM18.6084 25.8745V26.7496H17.7351V25.8745H18.6084ZM19.482 25.8745V26.7496H18.6084V25.8745H19.482ZM20.3555 25.8745V26.7496H19.482V25.8745H20.3555ZM21.2289 25.8745V26.7496H20.3555V25.8745H21.2289ZM22.1025 25.8745V26.7496H21.2289V25.8745H22.1025ZM22.976 25.8745V26.7496H22.1025V25.8745H22.976ZM22.976 26.7496V27.6247H22.1025V26.7496H22.976ZM22.976 27.6247V28.4995H22.1025V27.6247H22.976ZM22.1025 27.6247V28.4995H21.2289V27.6247H22.1025ZM21.2289 27.6247V28.4995H20.3555V27.6247H21.2289ZM20.3555 27.6247V28.4995H19.482V27.6247H20.3555ZM20.3555 26.7496V27.6247H19.482V26.7496H20.3555ZM21.2289 26.7496V27.6247H20.3555V26.7496H21.2289ZM22.1025 26.7496V27.6247H21.2289V26.7496H22.1025ZM16.8615 4V4.87499H15.9879V4H16.8615ZM16.8615 4.87499V5.74997H15.9879V4.87499H16.8615ZM16.8615 5.74997V6.62496H15.9879V5.74997H16.8615ZM16.8615 6.62496V7.49993H15.9879V6.62496H16.8615ZM16.8615 7.49993V8.37493H15.9879V7.49993H16.8615ZM16.8615 21.4997V22.3747H15.9879V21.4997H16.8615ZM16.8615 22.3747V23.2496H15.9879V22.3747H16.8615ZM16.8615 23.2496V24.1246H15.9879V23.2496H16.8615ZM16.8615 24.1246V24.9997H15.9879V24.1246H16.8615ZM16.8615 24.9997V25.8745H15.9879V24.9997H16.8615ZM16.8615 25.8745V26.7496H15.9879V25.8745H16.8615ZM16.8615 26.7496V27.6247H15.9879V26.7496H16.8615ZM17.7351 27.6247V28.4995H16.8615V27.6247H17.7351ZM18.6084 28.4995V29.3745H17.7351V28.4995H18.6084Z" fill="white"/>
</g>
<defs>
<clipPath id="clip0_76_23">
<rect width="32" height="32" fill="white"/>
</clipPath>
</defs>
</svg>
